<svg xmlns="http://www.w3.org/2000/svg" xmlns:xlink="http://www.w3.org/1999/xlink" width="375" viewBox="0 0 375 375" height="375" version="1.0"><defs><g id="d"><path d="M 46.757812 -3.625 L 46.757812 -39.289062 C 46.757812 -40.238281 47.0625 -41.105469 47.753906 -41.835938 C 47.925781 -42.054688 47.96875 -42.269531 47.882812 -42.527344 C 47.753906 -42.789062 47.578125 -42.917969 47.320312 -42.917969 L 38.210938 -42.917969 L 38.167969 -42.875 L 38.167969 -42.917969 L 37 -42.917969 C 36.699219 -42.917969 36.484375 -42.789062 36.398438 -42.527344 C 36.269531 -42.269531 36.269531 -42.054688 36.441406 -41.835938 C 36.613281 -41.578125 36.570312 -41.40625 36.398438 -41.277344 L 27.503906 -33.074219 C 27.199219 -32.8125 26.855469 -32.726562 26.511719 -32.726562 C 26.164062 -32.726562 25.863281 -32.8125 25.601562 -33.074219 L 16.578125 -41.363281 C 16.40625 -41.492188 16.40625 -41.621094 16.578125 -41.792969 C 16.753906 -42.011719 16.796875 -42.269531 16.710938 -42.527344 C 16.578125 -42.789062 16.363281 -42.917969 16.0625 -42.917969 L 5.871094 -42.917969 C 5.570312 -42.917969 5.355469 -42.789062 5.265625 -42.527344 C 5.136719 -42.269531 5.136719 -42.054688 5.3125 -41.835938 L 5.355469 -41.792969 C 6 -41.058594 6.347656 -40.195312 6.347656 -39.246094 L 6.347656 -3.671875 C 6.347656 -2.675781 6 -1.8125 5.355469 -1.121094 L 5.3125 -1.078125 C 5.136719 -0.820312 5.136719 -0.605469 5.265625 -0.34375 C 5.355469 -0.0859375 5.570312 0 5.871094 0 L 15.414062 0 C 15.671875 0 15.890625 -0.0859375 16.019531 -0.34375 C 16.105469 -0.605469 16.105469 -0.820312 15.976562 -1.078125 L 15.890625 -1.164062 C 15.199219 -1.855469 14.894531 -2.71875 14.894531 -3.714844 L 14.894531 -29.878906 C 14.894531 -30.136719 14.980469 -30.308594 15.242188 -30.394531 C 15.5 -30.480469 15.714844 -30.480469 15.933594 -30.308594 L 25.601562 -21.328125 C 25.863281 -21.070312 26.164062 -20.941406 26.554688 -20.941406 C 26.898438 -20.941406 27.242188 -21.070312 27.503906 -21.328125 L 37.175781 -30.308594 C 37.347656 -30.480469 37.5625 -30.480469 37.820312 -30.394531 C 38.082031 -30.308594 38.210938 -30.136719 38.210938 -29.878906 L 38.210938 -3.757812 C 38.210938 -2.804688 37.867188 -1.941406 37.175781 -1.207031 L 37.089844 -1.078125 C 36.914062 -0.820312 36.914062 -0.605469 37.046875 -0.34375 C 37.132812 -0.0859375 37.347656 0 37.648438 0 L 47.320312 0 C 47.578125 0 47.753906 -0.0859375 47.882812 -0.34375 C 47.96875 -0.605469 47.925781 -0.820312 47.753906 -1.078125 C 47.0625 -1.769531 46.757812 -2.632812 46.757812 -3.625 Z M 46.757812 -3.625"/></g><g id="e"><path d="M 14.9375 -3.800781 L 14.9375 -39.117188 C 14.9375 -40.152344 15.285156 -41.058594 15.976562 -41.835938 C 16.105469 -42.054688 16.105469 -42.269531 16.019531 -42.527344 C 15.890625 -42.789062 15.671875 -42.917969 15.414062 -42.917969 L 5.871094 -42.917969 C 5.570312 -42.917969 5.355469 -42.789062 5.265625 -42.527344 C 5.136719 -42.269531 5.136719 -42.054688 5.3125 -41.835938 C 6 -41.058594 6.390625 -40.152344 6.390625 -39.117188 L 6.390625 -3.800781 C 6.390625 -2.761719 6 -1.855469 5.3125 -1.078125 C 5.136719 -0.820312 5.136719 -0.605469 5.265625 -0.34375 C 5.355469 -0.0859375 5.570312 0 5.871094 0 L 15.414062 0 C 15.671875 0 15.890625 -0.0859375 16.019531 -0.34375 C 16.105469 -0.605469 16.105469 -0.820312 15.976562 -1.078125 C 15.628906 -1.425781 15.371094 -1.855469 15.199219 -2.332031 C 15.023438 -2.804688 14.9375 -3.28125 14.9375 -3.800781 Z M 14.9375 -3.800781"/></g><g id="f"><path d="M 40.238281 -1.078125 L 40.195312 -1.121094 C 39.507812 -1.8125 39.203125 -2.675781 39.203125 -3.714844 L 39.203125 -39.203125 C 39.203125 -40.195312 39.507812 -41.058594 40.195312 -41.792969 L 40.238281 -41.835938 C 40.371094 -42.054688 40.371094 -42.269531 40.285156 -42.527344 C 40.152344 -42.789062 39.9375 -42.917969 39.679688 -42.917969 L 30.136719 -42.917969 C 29.835938 -42.917969 29.617188 -42.789062 29.53125 -42.527344 C 29.402344 -42.269531 29.402344 -42.054688 29.574219 -41.835938 L 29.617188 -41.792969 C 30.265625 -41.058594 30.613281 -40.195312 30.613281 -39.203125 L 30.613281 -17.746094 C 30.613281 -17.574219 30.527344 -17.441406 30.351562 -17.398438 C 30.179688 -17.355469 30.050781 -17.398438 29.964844 -17.574219 L 16.449219 -40.285156 C 16.105469 -40.800781 16.191406 -41.320312 16.621094 -41.835938 C 16.753906 -42.054688 16.753906 -42.269531 16.664062 -42.527344 C 16.535156 -42.789062 16.320312 -42.917969 16.0625 -42.917969 L 14.894531 -42.917969 L 14.894531 -42.875 L 14.894531 -42.917969 L 5.871094 -42.917969 C 5.570312 -42.917969 5.355469 -42.789062 5.265625 -42.527344 C 5.136719 -42.269531 5.136719 -42.054688 5.3125 -41.835938 C 6 -41.058594 6.347656 -40.195312 6.347656 -39.246094 L 6.347656 -3.671875 C 6.347656 -2.675781 6 -1.8125 5.3125 -1.078125 C 5.136719 -0.820312 5.136719 -0.605469 5.265625 -0.34375 C 5.355469 -0.0859375 5.570312 0 5.871094 0 L 15.414062 0 C 15.671875 0 15.890625 -0.0859375 16.019531 -0.34375 C 16.105469 -0.605469 16.105469 -0.820312 15.976562 -1.078125 L 15.890625 -1.164062 C 15.199219 -1.855469 14.894531 -2.71875 14.894531 -3.757812 L 14.894531 -25.171875 C 14.894531 -25.34375 14.9375 -25.429688 15.113281 -25.472656 C 15.285156 -25.515625 15.414062 -25.472656 15.542969 -25.34375 L 29.101562 -2.589844 C 29.359375 -2.027344 29.316406 -1.511719 28.929688 -1.078125 C 28.753906 -0.820312 28.753906 -0.605469 28.886719 -0.34375 C 28.972656 -0.0859375 29.1875 0 29.488281 0 L 39.679688 0 C 39.9375 0 40.152344 -0.0859375 40.285156 -0.34375 C 40.371094 -0.605469 40.371094 -0.820312 40.238281 -1.078125 Z M 40.238281 -1.078125"/></g><g id="g"><path d="M 39.289062 -0.777344 C 39.289062 -0.949219 39.203125 -1.078125 39.074219 -1.164062 C 38.082031 -1.984375 37.433594 -3.023438 37.089844 -4.316406 L 26.769531 -39.980469 C 26.554688 -40.671875 26.683594 -41.320312 27.199219 -41.835938 C 27.332031 -42.054688 27.332031 -42.269531 27.242188 -42.527344 C 27.113281 -42.789062 26.898438 -42.917969 26.640625 -42.917969 L 15.242188 -42.917969 C 14.980469 -42.917969 14.765625 -42.789062 14.636719 -42.527344 C 14.507812 -42.269531 14.507812 -42.054688 14.679688 -41.835938 C 15.199219 -41.320312 15.328125 -40.671875 15.113281 -39.980469 L 4.835938 -4.273438 C 4.492188 -3.066406 3.800781 -2.027344 2.804688 -1.164062 C 2.675781 -1.035156 2.589844 -0.90625 2.589844 -0.777344 C 2.546875 -0.5625 2.589844 -0.386719 2.71875 -0.214844 C 2.851562 -0.0429688 3.023438 0 3.28125 0 L 13.296875 0 C 13.558594 0 13.773438 -0.0859375 13.859375 -0.34375 C 13.945312 -0.605469 13.945312 -0.820312 13.773438 -1.035156 C 13.253906 -1.554688 13.125 -2.203125 13.296875 -2.894531 L 14.636719 -7.382812 C 14.765625 -7.859375 15.023438 -8.246094 15.414062 -8.503906 C 15.757812 -8.765625 16.191406 -8.9375 16.710938 -8.9375 L 25.214844 -8.9375 C 25.691406 -8.9375 26.121094 -8.765625 26.511719 -8.503906 C 26.855469 -8.246094 27.113281 -7.859375 27.289062 -7.382812 L 28.582031 -2.894531 C 28.753906 -2.203125 28.582031 -1.597656 28.152344 -1.078125 L 28.152344 -1.035156 C 27.976562 -0.777344 27.976562 -0.5625 28.109375 -0.34375 C 28.195312 -0.0859375 28.410156 0 28.710938 0 L 38.640625 0 C 38.859375 0 39.03125 -0.0429688 39.160156 -0.214844 C 39.289062 -0.386719 39.332031 -0.5625 39.289062 -0.777344 Z M 23.746094 -17.484375 L 18.175781 -17.484375 C 18.003906 -17.484375 17.875 -17.53125 17.789062 -17.660156 C 17.660156 -17.789062 17.617188 -17.960938 17.703125 -18.132812 L 20.507812 -27.761719 C 20.550781 -27.976562 20.679688 -28.109375 20.941406 -28.109375 C 21.199219 -28.109375 21.328125 -27.976562 21.414062 -27.761719 L 24.179688 -18.132812 C 24.222656 -17.960938 24.179688 -17.789062 24.09375 -17.660156 C 24.007812 -17.53125 23.875 -17.484375 23.746094 -17.484375 Z M 23.746094 -17.484375"/></g><g id="h"><path d="M 31.390625 -9.542969 L 30.871094 -9.109375 C 30.394531 -8.679688 29.878906 -8.503906 29.316406 -8.503906 L 15.933594 -8.503906 C 15.628906 -8.503906 15.371094 -8.59375 15.199219 -8.765625 C 14.980469 -8.9375 14.894531 -9.195312 14.894531 -9.542969 L 14.894531 -39.074219 C 14.894531 -40.066406 15.242188 -40.972656 15.933594 -41.75 L 15.976562 -41.792969 C 16.105469 -42.011719 16.105469 -42.226562 16.019531 -42.484375 C 15.890625 -42.699219 15.671875 -42.832031 15.414062 -42.832031 L 5.871094 -42.832031 C 5.570312 -42.832031 5.355469 -42.699219 5.265625 -42.484375 C 5.136719 -42.226562 5.136719 -42.011719 5.3125 -41.792969 C 6 -41.015625 6.347656 -40.109375 6.347656 -39.117188 L 6.347656 -0.949219 C 6.347656 -0.648438 6.433594 -0.386719 6.648438 -0.214844 C 6.820312 0 7.082031 0.0859375 7.382812 0.0859375 L 29.316406 0.0859375 C 29.878906 0.0859375 30.394531 0.300781 30.871094 0.691406 L 31.390625 1.121094 C 31.605469 1.296875 31.820312 1.296875 32.078125 1.164062 C 32.296875 1.078125 32.425781 0.863281 32.425781 0.5625 L 32.425781 -8.980469 C 32.425781 -9.238281 32.296875 -9.457031 32.078125 -9.585938 C 31.820312 -9.671875 31.605469 -9.671875 31.390625 -9.542969 Z M 31.390625 -9.542969"/></g><g id="i"><path d="M 35.492188 -32.296875 L 35.273438 -32.554688 C 34.671875 -33.160156 34.28125 -33.851562 34.023438 -34.628906 C 33.246094 -37.046875 31.648438 -39.03125 29.316406 -40.585938 C 28.019531 -41.40625 26.554688 -42.054688 24.914062 -42.484375 C 23.273438 -42.917969 21.589844 -43.132812 19.773438 -43.132812 C 17.960938 -43.132812 16.191406 -42.875 14.507812 -42.441406 C 12.824219 -42.011719 11.3125 -41.363281 9.972656 -40.542969 C 8.160156 -39.417969 6.820312 -38.082031 5.871094 -36.484375 C 4.921875 -34.886719 4.492188 -33.160156 4.492188 -31.257812 C 4.492188 -27.632812 6.175781 -24.523438 9.628906 -21.976562 C 10.835938 -21.027344 12.132812 -20.25 13.558594 -19.558594 C 14.980469 -18.867188 16.449219 -18.175781 17.917969 -17.574219 C 18.78125 -17.140625 19.730469 -16.710938 20.679688 -16.277344 C 21.632812 -15.84375 22.496094 -15.371094 23.273438 -14.9375 C 24.050781 -14.464844 24.695312 -13.988281 25.214844 -13.515625 C 25.734375 -12.996094 25.992188 -12.519531 25.992188 -12.046875 C 25.992188 -11.441406 25.777344 -10.878906 25.34375 -10.449219 C 24.914062 -10.015625 24.351562 -9.628906 23.703125 -9.371094 C 23.054688 -9.109375 22.363281 -8.894531 21.589844 -8.765625 C 20.8125 -8.59375 20.121094 -8.550781 19.429688 -8.550781 C 18.566406 -8.550781 17.703125 -8.636719 16.753906 -8.851562 C 15.800781 -9.023438 14.980469 -9.371094 14.335938 -9.84375 C 14.160156 -9.972656 14.03125 -10.144531 14.03125 -10.363281 C 13.988281 -10.578125 14.03125 -10.75 14.203125 -10.921875 L 14.25 -10.964844 C 14.378906 -11.183594 14.378906 -11.398438 14.292969 -11.65625 C 14.160156 -11.917969 13.945312 -12.046875 13.6875 -12.046875 L 4.144531 -12.046875 C 3.84375 -12.046875 3.625 -11.917969 3.539062 -11.65625 C 3.410156 -11.398438 3.410156 -11.183594 3.582031 -10.964844 L 3.757812 -10.792969 C 4.359375 -10.101562 4.75 -9.371094 5.007812 -8.636719 C 5.785156 -6.132812 7.339844 -4.144531 9.757812 -2.632812 C 11.054688 -1.769531 12.5625 -1.121094 14.203125 -0.691406 C 15.84375 -0.214844 17.617188 0 19.429688 0 C 21.589844 0 23.617188 -0.300781 25.472656 -0.90625 C 27.332031 -1.511719 28.929688 -2.332031 30.265625 -3.410156 C 31.605469 -4.445312 32.640625 -5.742188 33.417969 -7.210938 C 34.152344 -8.679688 34.539062 -10.277344 34.539062 -12.046875 C 34.539062 -13.902344 34.109375 -15.542969 33.289062 -16.925781 C 32.46875 -18.304688 31.433594 -19.515625 30.136719 -20.550781 C 28.839844 -21.589844 27.460938 -22.453125 25.90625 -23.230469 C 24.351562 -24.007812 22.839844 -24.695312 21.371094 -25.386719 C 20.378906 -25.820312 19.386719 -26.25 18.394531 -26.726562 C 17.398438 -27.15625 16.492188 -27.632812 15.714844 -28.152344 C 14.9375 -28.625 14.292969 -29.144531 13.773438 -29.660156 C 13.253906 -30.179688 13.039062 -30.699219 13.039062 -31.257812 C 13.039062 -31.734375 13.210938 -32.167969 13.644531 -32.597656 C 14.03125 -33.03125 14.550781 -33.375 15.199219 -33.675781 C 15.800781 -33.9375 16.535156 -34.152344 17.355469 -34.324219 C 18.132812 -34.496094 18.953125 -34.585938 19.773438 -34.585938 C 20.722656 -34.585938 21.675781 -34.453125 22.539062 -34.28125 C 23.402344 -34.066406 24.09375 -33.761719 24.695312 -33.375 C 24.871094 -33.246094 25 -33.074219 25 -32.855469 C 25 -32.640625 24.957031 -32.46875 24.828125 -32.339844 L 24.828125 -32.296875 C 24.652344 -32.035156 24.652344 -31.820312 24.78125 -31.605469 C 24.871094 -31.347656 25.085938 -31.257812 25.386719 -31.257812 L 34.929688 -31.257812 C 35.1875 -31.257812 35.40625 -31.347656 35.535156 -31.605469 C 35.621094 -31.820312 35.621094 -32.035156 35.492188 -32.296875 Z M 35.492188 -32.296875"/></g><g id="j"><path d="M 33.808594 -43.996094 L 33.761719 -43.953125 C 32.988281 -43.261719 32.121094 -42.917969 31.128906 -42.917969 L 8.9375 -42.917969 C 7.902344 -42.917969 7.039062 -43.261719 6.261719 -43.953125 L 6.261719 -43.996094 C 6 -44.125 5.785156 -44.125 5.527344 -43.996094 C 5.265625 -43.867188 5.179688 -43.695312 5.179688 -43.433594 L 5.179688 -33.851562 C 5.179688 -33.546875 5.265625 -33.332031 5.527344 -33.246094 C 5.785156 -33.117188 6 -33.117188 6.261719 -33.289062 C 7.039062 -33.980469 7.902344 -34.367188 8.9375 -34.367188 L 14.894531 -34.367188 C 15.113281 -34.367188 15.328125 -34.28125 15.5 -34.109375 C 15.671875 -33.9375 15.757812 -33.71875 15.757812 -33.503906 L 15.757812 -3.800781 C 15.757812 -2.761719 15.414062 -1.855469 14.722656 -1.121094 L 14.679688 -1.078125 C 14.507812 -0.820312 14.507812 -0.605469 14.636719 -0.34375 C 14.722656 -0.0859375 14.9375 0 15.242188 0 L 24.828125 0 C 25.085938 0 25.257812 -0.0859375 25.386719 -0.34375 C 25.515625 -0.605469 25.515625 -0.820312 25.386719 -1.078125 C 24.652344 -1.855469 24.308594 -2.71875 24.308594 -3.757812 L 24.308594 -33.503906 C 24.308594 -33.71875 24.394531 -33.9375 24.566406 -34.109375 C 24.738281 -34.28125 24.914062 -34.367188 25.171875 -34.367188 L 31.128906 -34.367188 C 32.167969 -34.367188 33.03125 -33.980469 33.761719 -33.289062 L 33.808594 -33.289062 C 34.023438 -33.117188 34.238281 -33.117188 34.496094 -33.246094 C 34.757812 -33.332031 34.886719 -33.546875 34.886719 -33.851562 L 34.886719 -43.433594 C 34.886719 -43.695312 34.757812 -43.867188 34.496094 -43.996094 C 34.238281 -44.125 34.023438 -44.125 33.808594 -43.996094 Z M 33.808594 -43.996094"/></g><clipPath id="a"><path d="M 82 82 L 293.066406 82 L 293.066406 285 L 82 285 Z M 82 82"/></clipPath><clipPath id="b"><path d="M 293.03125 88.871094 C 293.03125 88.730469 292.996094 88.625 292.960938 88.519531 C 292.890625 88.0625 292.785156 87.574219 292.609375 87.152344 C 292.574219 87.011719 292.503906 86.871094 292.46875 86.765625 C 292.222656 86.238281 291.941406 85.714844 291.589844 85.257812 C 291.554688 85.1875 291.484375 85.152344 291.449219 85.117188 C 291.203125 84.835938 290.957031 84.554688 290.675781 84.273438 C 290.570312 84.171875 290.429688 84.101562 290.324219 84.03125 C 290.253906 83.996094 290.21875 83.925781 290.148438 83.855469 C 290.078125 83.820312 290.007812 83.785156 289.902344 83.75 C 289.445312 83.46875 288.988281 83.222656 288.496094 83.046875 C 288.429688 83.011719 288.359375 82.976562 288.289062 82.976562 C 287.726562 82.800781 287.164062 82.695312 286.601562 82.660156 C 286.460938 82.660156 286.320312 82.660156 286.144531 82.660156 C 285.652344 82.660156 285.195312 82.695312 284.703125 82.800781 C 284.597656 82.835938 284.457031 82.835938 284.351562 82.871094 C 283.789062 83.011719 283.230469 83.222656 282.703125 83.503906 C 282.667969 83.539062 282.632812 83.539062 282.5625 83.539062 L 85.835938 193.5625 C 83.410156 194.929688 82.003906 197.597656 82.285156 200.402344 C 82.566406 203.175781 84.464844 205.527344 87.132812 206.367188 L 138.351562 222.753906 L 158.167969 279.660156 C 158.203125 279.730469 158.238281 279.800781 158.273438 279.871094 C 158.414062 280.292969 158.625 280.675781 158.835938 281.027344 C 158.941406 281.167969 159.007812 281.308594 159.113281 281.449219 C 159.324219 281.765625 159.570312 282.046875 159.851562 282.324219 C 159.957031 282.429688 160.0625 282.535156 160.167969 282.640625 C 160.519531 282.957031 160.941406 283.238281 161.363281 283.484375 C 161.398438 283.519531 161.433594 283.519531 161.46875 283.554688 C 161.890625 283.765625 162.347656 283.976562 162.839844 284.117188 C 162.875 284.117188 162.945312 284.117188 162.980469 284.152344 C 163.015625 284.152344 163.050781 284.1875 163.121094 284.1875 C 163.648438 284.324219 164.207031 284.359375 164.734375 284.394531 C 164.769531 284.394531 164.769531 284.394531 164.804688 284.394531 C 164.804688 284.394531 164.839844 284.394531 164.839844 284.394531 C 165.507812 284.394531 166.175781 284.253906 166.808594 284.082031 C 166.914062 284.046875 167.019531 284.011719 167.125 283.976562 C 167.722656 283.765625 168.285156 283.449219 168.8125 283.097656 C 168.917969 283.027344 169.023438 282.957031 169.128906 282.851562 C 169.269531 282.746094 169.441406 282.640625 169.582031 282.5 L 209.175781 245.417969 L 255.371094 260.1875 C 256.074219 260.398438 256.777344 260.539062 257.511719 260.539062 C 258.777344 260.539062 260.042969 260.1875 261.167969 259.519531 C 262.886719 258.46875 264.117188 256.714844 264.433594 254.714844 L 292.960938 90.765625 C 292.960938 90.730469 292.960938 90.660156 292.960938 90.625 C 293.066406 90.027344 293.066406 89.46875 293.03125 88.871094 Z M 183.8125 236.855469 L 194.035156 240.261719 L 178.683594 254.644531 Z M 252.035156 244.222656 L 209.667969 230.683594 L 181.316406 221.246094 C 181.28125 221.246094 181.246094 221.246094 181.210938 221.210938 C 181.140625 221.175781 181.105469 221.175781 181.035156 221.140625 C 180.789062 221.070312 180.542969 221.035156 180.296875 221 C 180.121094 220.964844 179.980469 220.929688 179.804688 220.894531 C 179.492188 220.859375 179.210938 220.859375 178.894531 220.859375 C 178.753906 220.859375 178.578125 220.859375 178.4375 220.859375 C 178.15625 220.894531 177.839844 220.964844 177.558594 221 C 177.417969 221.035156 177.242188 221.070312 177.101562 221.105469 C 176.820312 221.175781 176.574219 221.28125 176.328125 221.417969 C 176.152344 221.488281 176.011719 221.558594 175.871094 221.628906 C 175.625 221.734375 175.414062 221.910156 175.203125 222.050781 C 175.027344 222.15625 174.886719 222.261719 174.710938 222.367188 C 174.539062 222.507812 174.363281 222.683594 174.1875 222.859375 C 174.011719 223 173.871094 223.175781 173.730469 223.3125 C 173.589844 223.488281 173.484375 223.664062 173.34375 223.839844 C 173.203125 224.050781 173.0625 224.226562 172.921875 224.472656 C 172.816406 224.648438 172.746094 224.824219 172.675781 225.035156 C 172.570312 225.242188 172.464844 225.417969 172.394531 225.628906 C 172.359375 225.699219 172.359375 225.734375 172.359375 225.804688 C 172.359375 225.839844 172.324219 225.875 172.324219 225.910156 L 164.210938 254.011719 L 150.507812 214.648438 C 150.472656 214.507812 150.367188 214.367188 150.332031 214.226562 C 150.226562 213.980469 150.121094 213.769531 150.015625 213.5625 C 149.910156 213.351562 149.769531 213.175781 149.664062 213 C 149.523438 212.824219 149.417969 212.613281 149.242188 212.4375 C 149.101562 212.261719 148.925781 212.085938 148.785156 211.945312 C 148.613281 211.773438 148.472656 211.632812 148.296875 211.492188 C 148.121094 211.351562 147.910156 211.210938 147.734375 211.105469 C 147.558594 211 147.347656 210.859375 147.171875 210.753906 C 146.960938 210.648438 146.714844 210.542969 146.46875 210.4375 C 146.328125 210.367188 146.1875 210.296875 146.046875 210.261719 L 106.84375 197.808594 L 254.492188 115.253906 L 190.273438 189.316406 C 187.746094 192.265625 188.0625 196.683594 190.976562 199.210938 C 192.3125 200.371094 193.929688 200.929688 195.578125 200.929688 C 197.546875 200.929688 199.515625 200.125 200.882812 198.507812 L 274.761719 113.253906 Z M 252.035156 244.222656"/></clipPath><linearGradient x1="1.92" gradientTransform="matrix(3.51297 0 0 3.50843 75.26 71.119)" xmlns:xlink="http://www.w3.org/1999/xlink" y1="32.005" x2="62" gradientUnits="userSpaceOnUse" y2="32.005" xlink:type="simple" xlink:actuate="onLoad" id="c" xlink:show="other"><stop stop-color="#F62C84" offset="0"/><stop stop-color="#F62C84" offset=".008"/><stop stop-color="#F52C85" offset=".016"/><stop stop-color="#F42C86" offset=".023"/><stop stop-color="#F42D87" offset=".031"/><stop stop-color="#F32D88" offset=".039"/><stop stop-color="#F22D88" offset=".047"/><stop stop-color="#F22D89" offset=".055"/><stop stop-color="#F12D8A" offset=".063"/><stop stop-color="#F02D8B" offset=".07"/><stop stop-color="#EF2D8C" offset=".078"/><stop stop-color="#EF2D8C" offset=".086"/><stop stop-color="#EE2E8D" offset=".094"/><stop stop-color="#ED2E8E" offset=".102"/><stop stop-color="#ED2E8F" offset=".109"/><stop stop-color="#EC2E90" offset=".117"/><stop stop-color="#EB2E90" offset=".125"/><stop stop-color="#EA2E91" offset=".133"/><stop stop-color="#EA2E92" offset=".141"/><stop stop-color="#E92E93" offset=".148"/><stop stop-color="#E82F94" offset=".156"/><stop stop-color="#E82F94" offset=".164"/><stop stop-color="#E72F95" offset=".172"/><stop stop-color="#E62F96" offset=".18"/><stop stop-color="#E52F97" offset=".188"/><stop stop-color="#E52F98" offset=".195"/><stop stop-color="#E42F98" offset=".203"/><stop stop-color="#E32F99" offset=".211"/><stop stop-color="#E3309A" offset=".219"/><stop stop-color="#E2309B" offset=".227"/><stop stop-color="#E1309C" offset=".234"/><stop stop-color="#E0309D" offset=".242"/><stop stop-color="#E0309E" offset=".25"/><stop stop-color="#DF309F" offset=".258"/><stop stop-color="#DE30A0" offset=".266"/><stop stop-color="#DD31A0" offset=".273"/><stop stop-color="#DC31A1" offset=".281"/><stop stop-color="#DB31A2" offset=".289"/><stop stop-color="#DA31A3" offset=".297"/><stop stop-color="#DA31A4" offset=".305"/><stop stop-color="#D931A5" offset=".313"/><stop stop-color="#D831A6" offset=".32"/><stop stop-color="#D731A7" offset=".328"/><stop stop-color="#D632A8" offset=".336"/><stop stop-color="#D532A9" offset=".344"/><stop stop-color="#D432AA" offset=".352"/><stop stop-color="#D332AB" offset=".359"/><stop stop-color="#D332AC" offset=".367"/><stop stop-color="#D232AD" offset=".375"/><stop stop-color="#D132AE" offset=".383"/><stop stop-color="#D032AF" offset=".391"/><stop stop-color="#CF33B0" offset=".398"/><stop stop-color="#CE33B1" offset=".406"/><stop stop-color="#CD33B2" offset=".414"/><stop stop-color="#CD33B3" offset=".422"/><stop stop-color="#CC33B4" offset=".43"/><stop stop-color="#CB33B5" offset=".438"/><stop stop-color="#CA33B6" offset=".445"/><stop stop-color="#C934B7" offset=".453"/><stop stop-color="#C834B8" offset=".461"/><stop stop-color="#C734B9" offset=".469"/><stop stop-color="#C734BA" offset=".477"/><stop stop-color="#C634BB" offset=".484"/><stop stop-color="#C534BC" offset=".492"/><stop stop-color="#C434BD" offset=".5"/><stop stop-color="#C334BE" offset=".508"/><stop stop-color="#C235BF" offset=".516"/><stop stop-color="#C135C0" offset=".523"/><stop stop-color="#C135C1" offset=".531"/><stop stop-color="#C035C2" offset=".539"/><stop stop-color="#BF35C3" offset=".547"/><stop stop-color="#BE35C4" offset=".555"/><stop stop-color="#BD35C5" offset=".563"/><stop stop-color="#BC36C6" offset=".57"/><stop stop-color="#BB36C7" offset=".578"/><stop stop-color="#BA36C8" offset=".586"/><stop stop-color="#BA36C9" offset=".594"/><stop stop-color="#B936CA" offset=".602"/><stop stop-color="#B836CB" offset=".609"/><stop stop-color="#B736CB" offset=".617"/><stop stop-color="#B636CC" offset=".625"/><stop stop-color="#B537CD" offset=".633"/><stop stop-color="#B437CE" offset=".641"/><stop stop-color="#B437CF" offset=".648"/><stop stop-color="#B337D0" offset=".656"/><stop stop-color="#B237D1" offset=".664"/><stop stop-color="#B137D2" offset=".672"/><stop stop-color="#B037D3" offset=".68"/><stop stop-color="#AF37D4" offset=".688"/><stop stop-color="#AE38D5" offset=".695"/><stop stop-color="#AE38D6" offset=".703"/><stop stop-color="#AD38D7" offset=".711"/><stop stop-color="#AC38D8" offset=".719"/><stop stop-color="#AB38D9" offset=".723"/><stop stop-color="#AA38DA" offset=".727"/><stop stop-color="#AA38DA" offset=".73"/><stop stop-color="#AA38DB" offset=".734"/><stop stop-color="#A938DB" offset=".738"/><stop stop-color="#A939DC" offset=".742"/><stop stop-color="#A839DC" offset=".746"/><stop stop-color="#A839DD" offset=".75"/><stop stop-color="#A739DD" offset=".754"/><stop stop-color="#A739DE" offset=".758"/><stop stop-color="#A639DF" offset=".762"/><stop stop-color="#A639DF" offset=".766"/><stop stop-color="#A539E0" offset=".77"/><stop stop-color="#A539E0" offset=".773"/><stop stop-color="#A439E1" offset=".777"/><stop stop-color="#A439E1" offset=".781"/><stop stop-color="#A439E2" offset=".785"/><stop stop-color="#A33AE2" offset=".789"/><stop stop-color="#A33AE3" offset=".793"/><stop stop-color="#A23AE3" offset=".797"/><stop stop-color="#A23AE4" offset=".801"/><stop stop-color="#A13AE4" offset=".805"/><stop stop-color="#A13AE5" offset=".809"/><stop stop-color="#A03AE5" offset=".813"/><stop stop-color="#A03AE6" offset=".816"/><stop stop-color="#9F3AE7" offset=".82"/><stop stop-color="#9F3AE7" offset=".824"/><stop stop-color="#9E3AE8" offset=".828"/><stop stop-color="#9E3AE8" offset=".832"/><stop stop-color="#9D3BE9" offset=".836"/><stop stop-color="#9D3BE9" offset=".84"/><stop stop-color="#9D3BEA" offset=".844"/><stop stop-color="#9C3BEA" offset=".848"/><stop stop-color="#9C3BEB" offset=".852"/><stop stop-color="#9B3BEB" offset=".855"/><stop stop-color="#9B3BEC" offset=".859"/><stop stop-color="#9A3BEC" offset=".863"/><stop stop-color="#9A3BED" offset=".867"/><stop stop-color="#993BED" offset=".871"/><stop stop-color="#993BEE" offset=".875"/><stop stop-color="#983BEE" offset=".879"/><stop stop-color="#983BEF" offset=".883"/><stop stop-color="#973CF0" offset=".887"/><stop stop-color="#973CF0" offset=".891"/><stop stop-color="#963CF1" offset=".895"/><stop stop-color="#963CF1" offset=".898"/><stop stop-color="#963CF2" offset=".902"/><stop stop-color="#953CF2" offset=".906"/><stop stop-color="#953CF3" offset=".91"/><stop stop-color="#943CF3" offset=".914"/><stop stop-color="#943CF4" offset=".918"/><stop stop-color="#933CF4" offset=".922"/><stop stop-color="#933CF5" offset=".926"/><stop stop-color="#923CF5" offset=".93"/><stop stop-color="#923DF6" offset=".934"/><stop stop-color="#913DF6" offset=".938"/><stop stop-color="#913DF7" offset=".941"/><stop stop-color="#903DF8" offset=".945"/><stop stop-color="#903DF8" offset=".949"/><stop stop-color="#903DF9" offset=".953"/><stop stop-color="#8F3DF9" offset=".957"/><stop stop-color="#8F3DFA" offset=".961"/><stop stop-color="#8E3DFA" offset=".965"/><stop stop-color="#8E3DFB" offset=".969"/><stop stop-color="#8D3DFB" offset=".973"/><stop stop-color="#8D3DFC" offset=".977"/><stop stop-color="#8C3EFC" offset=".98"/><stop stop-color="#8C3EFD" offset=".984"/><stop stop-color="#8B3EFD" offset=".988"/><stop stop-color="#8B3EFE" offset=".992"/><stop stop-color="#8A3EFE" offset=".996"/><stop stop-color="#8A3EFF" offset="1"/></linearGradient></defs><g clip-path="url(#a)"><g clip-path="url(#b)"><path fill="url(#c)" d="M 82.003906 82.660156 L 82.003906 284.394531 L 293.066406 284.394531 L 293.066406 82.660156 Z M 82.003906 82.660156"/></g></g><g fill="#FFC1B2" fill-opacity=".302"><use x="-.679" y="336.598" xmlns:xlink="http://www.w3.org/1999/xlink" xlink:href="#d" xlink:type="simple" xlink:actuate="onLoad" xlink:show="embed"/></g><g fill="#FFC1B2" fill-opacity=".302"><use x="52.416" y="336.598" xmlns:xlink="http://www.w3.org/1999/xlink" xlink:href="#e" xlink:type="simple" xlink:actuate="onLoad" xlink:show="embed"/></g><g fill="#FFC1B2" fill-opacity=".302"><use x="73.74" y="336.598" xmlns:xlink="http://www.w3.org/1999/xlink" xlink:href="#f" xlink:type="simple" xlink:actuate="onLoad" xlink:show="embed"/></g><g fill="#FFC1B2" fill-opacity=".302"><use x="119.28" y="336.598" xmlns:xlink="http://www.w3.org/1999/xlink" xlink:href="#e" xlink:type="simple" xlink:actuate="onLoad" xlink:show="embed"/></g><g fill="#FFC1B2" fill-opacity=".302"><use x="140.604" y="336.598" xmlns:xlink="http://www.w3.org/1999/xlink" xlink:href="#d" xlink:type="simple" xlink:actuate="onLoad" xlink:show="embed"/></g><g fill="#FFC1B2" fill-opacity=".302"><use x="193.699" y="336.598" xmlns:xlink="http://www.w3.org/1999/xlink" xlink:href="#g" xlink:type="simple" xlink:actuate="onLoad" xlink:show="embed"/></g><g fill="#FFC1B2" fill-opacity=".302"><use x="235.613" y="336.598" xmlns:xlink="http://www.w3.org/1999/xlink" xlink:href="#h" xlink:type="simple" xlink:actuate="onLoad" xlink:show="embed"/></g><g fill="#FFC1B2" fill-opacity=".302"><use x="270.664" y="336.598" xmlns:xlink="http://www.w3.org/1999/xlink" xlink:href="#e" xlink:type="simple" xlink:actuate="onLoad" xlink:show="embed"/></g><g fill="#FFC1B2" fill-opacity=".302"><use x="291.988" y="336.598" xmlns:xlink="http://www.w3.org/1999/xlink" xlink:href="#i" xlink:type="simple" xlink:actuate="onLoad" xlink:show="embed"/></g><g fill="#FFC1B2" fill-opacity=".302"><use x="331.054" y="336.598" xmlns:xlink="http://www.w3.org/1999/xlink" xlink:href="#j" xlink:type="simple" xlink:actuate="onLoad" xlink:show="embed"/></g><g fill="#FFC1B2" fill-opacity=".502"><use x=".464" y="337.083" xmlns:xlink="http://www.w3.org/1999/xlink" xlink:href="#d" xlink:type="simple" xlink:actuate="onLoad" xlink:show="embed"/></g><g fill="#FFC1B2" fill-opacity=".502"><use x="53.559" y="337.083" xmlns:xlink="http://www.w3.org/1999/xlink" xlink:href="#e" xlink:type="simple" xlink:actuate="onLoad" xlink:show="embed"/></g><g fill="#FFC1B2" fill-opacity=".502"><use x="74.883" y="337.083" xmlns:xlink="http://www.w3.org/1999/xlink" xlink:href="#f" xlink:type="simple" xlink:actuate="onLoad" xlink:show="embed"/></g><g fill="#FFC1B2" fill-opacity=".502"><use x="120.423" y="337.083" xmlns:xlink="http://www.w3.org/1999/xlink" xlink:href="#e" xlink:type="simple" xlink:actuate="onLoad" xlink:show="embed"/></g><g fill="#FFC1B2" fill-opacity=".502"><use x="141.747" y="337.083" xmlns:xlink="http://www.w3.org/1999/xlink" xlink:href="#d" xlink:type="simple" xlink:actuate="onLoad" xlink:show="embed"/></g><g fill="#FFC1B2" fill-opacity=".502"><use x="194.841" y="337.083" xmlns:xlink="http://www.w3.org/1999/xlink" xlink:href="#g" xlink:type="simple" xlink:actuate="onLoad" xlink:show="embed"/></g><g fill="#FFC1B2" fill-opacity=".502"><use x="236.756" y="337.083" xmlns:xlink="http://www.w3.org/1999/xlink" xlink:href="#h" xlink:type="simple" xlink:actuate="onLoad" xlink:show="embed"/></g><g fill="#FFC1B2" fill-opacity=".502"><use x="271.807" y="337.083" xmlns:xlink="http://www.w3.org/1999/xlink" xlink:href="#e" xlink:type="simple" xlink:actuate="onLoad" xlink:show="embed"/></g><g fill="#FFC1B2" fill-opacity=".502"><use x="293.131" y="337.083" xmlns:xlink="http://www.w3.org/1999/xlink" xlink:href="#i" xlink:type="simple" xlink:actuate="onLoad" xlink:show="embed"/></g><g fill="#FFC1B2" fill-opacity=".502"><use x="332.196" y="337.083" xmlns:xlink="http://www.w3.org/1999/xlink" xlink:href="#j" xlink:type="simple" xlink:actuate="onLoad" xlink:show="embed"/></g><g fill="#FFFAEF"><use x="1.607" y="337.568" xmlns:xlink="http://www.w3.org/1999/xlink" xlink:href="#d" xlink:type="simple" xlink:actuate="onLoad" xlink:show="embed"/></g><g fill="#FFFAEF"><use x="54.701" y="337.568" xmlns:xlink="http://www.w3.org/1999/xlink" xlink:href="#e" xlink:type="simple" xlink:actuate="onLoad" xlink:show="embed"/></g><g fill="#FFFAEF"><use x="76.025" y="337.568" xmlns:xlink="http://www.w3.org/1999/xlink" xlink:href="#f" xlink:type="simple" xlink:actuate="onLoad" xlink:show="embed"/></g><g fill="#FFFAEF"><use x="121.566" y="337.568" xmlns:xlink="http://www.w3.org/1999/xlink" xlink:href="#e" xlink:type="simple" xlink:actuate="onLoad" xlink:show="embed"/></g><g fill="#FFFAEF"><use x="142.89" y="337.568" xmlns:xlink="http://www.w3.org/1999/xlink" xlink:href="#d" xlink:type="simple" xlink:actuate="onLoad" xlink:show="embed"/></g><g fill="#FFFAEF"><use x="195.984" y="337.568" xmlns:xlink="http://www.w3.org/1999/xlink" xlink:href="#g" xlink:type="simple" xlink:actuate="onLoad" xlink:show="embed"/></g><g fill="#FFFAEF"><use x="237.899" y="337.568" xmlns:xlink="http://www.w3.org/1999/xlink" xlink:href="#h" xlink:type="simple" xlink:actuate="onLoad" xlink:show="embed"/></g><g fill="#FFFAEF"><use x="272.95" y="337.568" xmlns:xlink="http://www.w3.org/1999/xlink" xlink:href="#e" xlink:type="simple" xlink:actuate="onLoad" xlink:show="embed"/></g><g fill="#FFFAEF"><use x="294.274" y="337.568" xmlns:xlink="http://www.w3.org/1999/xlink" xlink:href="#i" xlink:type="simple" xlink:actuate="onLoad" xlink:show="embed"/></g><g fill="#FFFAEF"><use x="333.339" y="337.568" xmlns:xlink="http://www.w3.org/1999/xlink" xlink:href="#j" xlink:type="simple" xlink:actuate="onLoad" xlink:show="embed"/></g></svg>